<svg width="1101" height="632" xmlns="http://www.w3.org/2000/svg" xmlns:xlink="http://www.w3.org/1999/xlink" overflow="hidden"><defs><clipPath id="clip0"><rect x="14" y="72" width="1101" height="632"/></clipPath></defs><g clip-path="url(#clip0)" transform="translate(-14 -72)"><path d="M1.5-2.09541e-06 1.50009 67.6547-1.49991 67.6547-1.5 2.09541e-06ZM4.50009 66.1547 0.000104987 75.1547-4.49991 66.1548Z" fill="#0FBAF1" transform="matrix(1 0 0 -1 337.5 414.655)"/><path d="M0-1.5 25.5-1.5 25.5 455.098 8.83333 455.098 8.83333 452.098 24 452.098 22.5 453.598 22.5 0 24 1.5 0 1.5ZM10.3333 458.098 1.33333 453.598 10.3333 449.098Z" fill="#0FBAF1" transform="matrix(1.83697e-16 1 1 -1.83697e-16 111.5 678.5)"/><path d="M0-1.5 25.5-1.5 25.5 681.897 8.83333 681.897 8.83333 678.897 24 678.897 22.5 680.397 22.5 0 24 1.5 0 1.5ZM10.3333 684.897 1.33333 680.397 10.3333 675.897Z" fill="#0FBAF1" transform="matrix(1.83697e-16 1 1 -1.83697e-16 111.5 678.5)"/><path d="M0-1.5 25.5-1.5 25.5 909.363 8.83333 909.363 8.83333 906.363 24 906.363 22.5 907.863 22.5 0 24 1.5 0 1.5ZM10.3333 912.363 1.33333 907.863 10.3333 903.363Z" fill="#0FBAF1" transform="matrix(1.83697e-16 1 1 -1.83697e-16 111.5 678.5)"/><path d="M0-1.5 25.5-1.5 25.5 228.299 8.83333 228.299 8.83333 225.299 24 225.299 22.5 226.799 22.5 0 24 1.5 0 1.5ZM10.3333 231.299 1.33333 226.799 10.3333 222.299Z" fill="#0FBAF1" transform="matrix(-1.83697e-16 -1 -1 1.83697e-16 1018.3 415.833)"/><path d="M0-1.5 25.5-1.5 25.5 228.299 8.83333 228.299 8.83333 225.299 24 225.299 22.5 226.799 22.5 0 24 1.5 0 1.5ZM10.3333 231.299 1.33333 226.799 10.3333 222.299Z" fill="#0FBAF1" transform="matrix(1.83697e-16 1 1 -1.83697e-16 111.5 678.5)"/><rect x="242.5" y="414.5" width="189" height="265" stroke="#9B75D9" stroke-width="3" stroke-miterlimit="8" fill="none"/><text fill="#FFFFFF" font-family="Calibri,Calibri_MSFontService,sans-serif" font-weight="400" font-size="16" transform="translate(252.037 472)">student_key (PK)<tspan font-size="16" x="0" y="39">student_type_key (PK,FK)</tspan><tspan font-size="16" x="0" y="77">student_ID (NK)</tspan><tspan font-size="16" x="0" y="116">student__FName</tspan><tspan font-size="16" x="0" y="154">student _LName</tspan></text><rect x="242.5" y="414.5" width="189" height="38" stroke="#9B75D9" stroke-width="3" stroke-miterlimit="8" fill="none"/><text fill="#FFFFFF" font-family="Calibri,Calibri_MSFontService,sans-serif" font-weight="400" font-size="16" transform="translate(293.749 439)">Student_DIM</text><rect x="16.5001" y="414.5" width="189" height="265" stroke="#F08F18" stroke-width="3" stroke-miterlimit="8" fill="none"/><text fill="#FFFFFF" font-family="Calibri,Calibri_MSFontService,sans-serif" font-weight="400" font-size="16" transform="translate(25.2382 472)">student_key (PK, FK)<tspan font-size="16" x="0" y="39">admin_key (PK, FK</tspan>)<tspan font-size="16" x="0" y="77">date_registered(PK,FK)</tspan><tspan font-size="16" x="0" y="116">orientation_event(PK,FK)</tspan></text><rect x="16.5001" y="414.5" width="189" height="38" stroke="#F08F18" stroke-width="3" stroke-miterlimit="8" fill="none"/><text fill="#FFFFFF" font-family="Calibri,Calibri_MSFontService,sans-serif" font-weight="400" font-size="16" transform="translate(58.1497 439)">orientation_FCT</text><rect x="242.5" y="75.5001" width="189" height="264" stroke="#9B75D9" stroke-width="3" stroke-miterlimit="8" fill="none"/><text fill="#FFFFFF" font-family="Calibri,Calibri_MSFontService,sans-serif" font-weight="400" font-size="16" transform="translate(252.037 132)">student_type_key (PK)<tspan font-size="16" x="0" y="39">student_type</tspan></text><rect x="242.5" y="75.5001" width="189" height="37" stroke="#9B75D9" stroke-width="3" stroke-miterlimit="8" fill="none"/><text fill="#FFFFFF" font-family="Calibri,Calibri_MSFontService,sans-serif" font-weight="400" font-size="16" transform="translate(274.446 99)">Student_Type_DIM</text><rect x="469.5" y="414.5" width="189" height="265" stroke="#9B75D9" stroke-width="3" stroke-miterlimit="8" fill="none"/><text fill="#FFFFFF" font-family="Calibri,Calibri_MSFontService,sans-serif" font-weight="400" font-size="16" transform="translate(478.837 472)">admin_key (PK)<tspan font-size="16" x="0" y="39">admin_ID (NK)</tspan><tspan font-size="16" x="0" y="77">admin__FName</tspan><tspan font-size="16" x="0" y="116">admin _LName</tspan></text><rect x="469.5" y="414.5" width="189" height="38" stroke="#9B75D9" stroke-width="3" stroke-miterlimit="8" fill="none"/><text fill="#FFFFFF" font-family="Calibri,Calibri_MSFontService,sans-serif" font-weight="400" font-size="16" transform="translate(525.558 439)">admin_DIM</text><rect x="696.5" y="414.5" width="189" height="265" stroke="#9B75D9" stroke-width="3" stroke-miterlimit="8" fill="none"/><text fill="#FFFFFF" font-family="Calibri,Calibri_MSFontService,sans-serif" font-weight="400" font-size="16" transform="translate(705.636 472)">date_key (PK)<tspan font-size="16" x="0" y="39">dateRelatedFacts</tspan></text><rect x="696.5" y="414.5" width="189" height="38" stroke="#9B75D9" stroke-width="3" stroke-miterlimit="8" fill="none"/><text fill="#FFFFFF" font-family="Calibri,Calibri_MSFontService,sans-serif" font-weight="400" font-size="16" transform="translate(757.517 439)">Date_DIM</text><rect x="923.5" y="414.5" width="190" height="265" stroke="#9B75D9" stroke-width="3" stroke-miterlimit="8" fill="none"/><text fill="#FFFFFF" font-family="Calibri,Calibri_MSFontService,sans-serif" font-weight="400" font-size="16" transform="translate(932.435 472)">oreientation_event(PK,FK)<tspan font-size="16" x="0" y="20">date_of_event</tspan></text><rect x="923.5" y="414.5" width="189" height="38" stroke="#9B75D9" stroke-width="3" stroke-miterlimit="8" fill="none"/><text fill="#FFFFFF" font-family="Calibri,Calibri_MSFontService,sans-serif" font-weight="400" font-size="16" transform="translate(963.4 439)">orientation_DIM</text></g></svg>