<svg width="843" height="658" xmlns="http://www.w3.org/2000/svg" xmlns:xlink="http://www.w3.org/1999/xlink" overflow="hidden"><defs><clipPath id="clip0"><rect x="8" y="17" width="843" height="658"/></clipPath></defs><g clip-path="url(#clip0)" transform="translate(-8 -17)"><path d="M0 0 66.5803 25.7457" stroke="#0FBAF1" stroke-width="3" stroke-miterlimit="8" stroke-dasharray="12 9" fill="none" fill-rule="evenodd" transform="matrix(-1 0 0 1 284.08 538.5)"/><path d="M0 0 24.1378 20.4068" stroke="#0FBAF1" stroke-width="3" stroke-miterlimit="8" stroke-dasharray="12 9" fill="none" fill-rule="evenodd" transform="matrix(-1 0 0 1 34.6379 564.5)"/><path d="M34.4756 129.195 14.5001 109.5" stroke="#0FBAF1" stroke-width="3" stroke-miterlimit="8" stroke-dasharray="12 9" fill="none" fill-rule="evenodd"/><path d="M0 0 67.0279 5.29228" stroke="#0FBAF1" stroke-width="3" stroke-miterlimit="8" stroke-dasharray="12 9" fill="none" fill-rule="evenodd" transform="matrix(1 0 0 -1 217.5 128.792)"/><path d="M365.5 65.5001 442.312 128.721" stroke="#0FBAF1" stroke-width="3" stroke-miterlimit="8" stroke-dasharray="12 9" fill="none" fill-rule="evenodd"/><path d="M0 0 76.7932 102.939" stroke="#0FBAF1" stroke-width="3" stroke-miterlimit="8" stroke-dasharray="12 9" fill="none" fill-rule="evenodd" transform="matrix(1 0 0 -1 365.5 667.439)"/><path d="M0 0 32.7615 145.369" stroke="#0FBAF1" stroke-width="3" stroke-miterlimit="8" stroke-dasharray="12 9" fill="none" fill-rule="evenodd" transform="matrix(1 0 0 -1 624.5 566.869)"/><path d="M624.5 564.5 665.51 564.5" stroke="#0FBAF1" stroke-width="3" stroke-miterlimit="8" fill="none" fill-rule="evenodd"/><path d="M0 0 40.9913 0.445354" stroke="#0FBAF1" stroke-width="3" stroke-miterlimit="8" fill="none" fill-rule="evenodd" transform="matrix(1 0 0 -1 624.5 127.945)"/><path d="M238.515 346.703 126.5 237.5" stroke="#0FBAF1" stroke-width="3" stroke-miterlimit="8" fill="none" fill-rule="evenodd"/><path d="M0 0 112.033 108.712" stroke="#0FBAF1" stroke-width="3" stroke-miterlimit="8" fill="none" fill-rule="evenodd" transform="matrix(-1 0 0 1 238.533 346.5)"/><path d="M0 0 112.015 109.574" stroke="#0FBAF1" stroke-width="3" stroke-miterlimit="8" fill="none" fill-rule="evenodd" transform="matrix(-1 0 0 1 533.515 237.5)"/><path d="M533.496 455.703 421.5 346.5" stroke="#0FBAF1" stroke-width="3" stroke-miterlimit="8" fill="none" fill-rule="evenodd"/><text fill="#FFFFFF" font-family="Calibri,Calibri_MSFontService,sans-serif" font-weight="400" font-size="16" transform="translate(247.399 302)">order_id<tspan font-size="16" x="0" y="19">customer_id</tspan><tspan font-size="16" x="0" y="38">product_id</tspan><tspan font-size="16" x="0" y="58">store_id</tspan><tspan font-size="16" x="0" y="77">purchase_id</tspan><tspan font-size="16" x="0" y="96">purchase_dat</tspan>e</text><path d="M238.5 282.5 421.462 282.5" stroke="#F08F18" stroke-width="3" stroke-miterlimit="8" fill="none" fill-rule="evenodd"/><text fill="#FFFFFF" font-family="Calibri,Calibri_MSFontService,sans-serif" font-weight="400" font-size="24" transform="translate(281.2 267)">sales_fact</text><path d="M238.5 268.001C238.5 251.156 252.156 237.5 269.001 237.5L390.999 237.5C407.844 237.5 421.5 251.156 421.5 268.001L421.5 424.999C421.5 441.844 407.844 455.5 390.999 455.5L269.001 455.5C252.156 455.5 238.5 441.844 238.5 424.999Z" stroke="#F08F18" stroke-width="3" stroke-miterlimit="8" fill="none" fill-rule="evenodd"/><text fill="#FFFFFF" font-family="Calibri,Calibri_MSFontService,sans-serif" font-weight="400" font-size="16" transform="translate(43.9038 84)">product_id<tspan font-size="16" x="0" y="19">(various product related </tspan><tspan font-size="16" x="0" y="38">columns</tspan></text><path d="M34.5001 51.0006C34.5001 34.1556 48.1556 20.5001 65.0006 20.5001L186.999 20.5001C203.844 20.5001 217.5 34.1556 217.5 51.0006L217.5 207C217.5 223.845 203.844 237.5 186.999 237.5L65.0006 237.5C48.1556 237.5 34.5001 223.845 34.5001 207Z" stroke="#9B75D9" stroke-width="3" stroke-miterlimit="8" fill="none" fill-rule="evenodd"/><path d="M34.5001 65.5001 217.462 65.5002" stroke="#9B75D9" stroke-width="3" stroke-miterlimit="8" fill="none" fill-rule="evenodd"/><text fill="#FFFFFF" font-family="Calibri,Calibri_MSFontService,sans-serif" font-weight="400" font-size="24" transform="translate(62.7473 49)">product_dim<tspan font-size="16" x="388.148" y="35">customer_id</tspan><tspan font-size="16" x="388.148" y="54">customer</tspan><tspan font-size="16" x="527.768" y="54">)</tspan></text><path d="M441.5 50.0007C441.5 33.1557 455.156 19.5001 472.001 19.5001L593.999 19.5001C610.844 19.5001 624.5 33.1557 624.5 50.0007L624.5 206.999C624.5 223.844 610.844 237.5 593.999 237.5L472.001 237.5C455.156 237.5 441.5 223.844 441.5 206.999Z" stroke="#9B75D9" stroke-width="3" stroke-miterlimit="8" fill="none" fill-rule="evenodd"/><path d="M441.5 64.5001 624.462 64.5002" stroke="#9B75D9" stroke-width="3" stroke-miterlimit="8" fill="none" fill-rule="evenodd"/><text fill="#FFFFFF" font-family="Calibri,Calibri_MSFontService,sans-serif" font-weight="400" font-size="24" transform="translate(462.212 49)">customer_dim<tspan font-size="16" x="-418.308" y="471">store_id</tspan><tspan font-size="16" x="-418.308" y="490">(various store related </tspan><tspan font-size="16" x="-418.308" y="509">columns)</tspan></text><path d="M34.5001 486.001C34.5001 469.156 48.1557 455.5 65.0008 455.5L186.999 455.5C203.844 455.5 217.5 469.156 217.5 486.001L217.5 642.999C217.5 659.844 203.844 673.5 186.999 673.5L65.0008 673.5C48.1557 673.5 34.5001 659.844 34.5001 642.999Z" stroke="#9B75D9" stroke-width="3" stroke-miterlimit="8" fill="none" fill-rule="evenodd"/><path d="M34.5001 500.5 217.462 500.5" stroke="#9B75D9" stroke-width="3" stroke-miterlimit="8" fill="none" fill-rule="evenodd"/><text fill="#FFFFFF" font-family="Calibri,Calibri_MSFontService,sans-serif" font-weight="400" font-size="24" transform="translate(76.3773 485)">store_dim<tspan font-size="16" x="374.499" y="35">purchase_date</tspan><tspan font-size="16" x="374.499" y="54">purchase_month_id</tspan></text><path d="M441.5 486.001C441.5 469.156 455.156 455.5 472.001 455.5L593.999 455.5C610.844 455.5 624.5 469.156 624.5 486.001L624.5 642.999C624.5 659.844 610.844 673.5 593.999 673.5L472.001 673.5C455.156 673.5 441.5 659.844 441.5 642.999Z" stroke="#9B75D9" stroke-width="3" stroke-miterlimit="8" fill="none" fill-rule="evenodd"/><path d="M441.5 500.5 624.462 500.5" stroke="#9B75D9" stroke-width="3" stroke-miterlimit="8" fill="none" fill-rule="evenodd"/><text fill="#FFFFFF" font-family="Calibri,Calibri_MSFontService,sans-serif" font-weight="400" font-size="24" transform="translate(486.266 485)">date_dim<tspan font-size="16" x="188.582" y="-402">c_address_city_id</tspan><tspan font-size="16" x="188.582" y="-383">c_address_city</tspan><tspan font-size="16" x="188.582" y="-364">)</tspan></text><path d="M665.5 50.0006C665.5 33.1556 679.156 19.5001 696.001 19.5001L817.999 19.5001C834.844 19.5001 848.5 33.1556 848.5 50.0006L848.5 206C848.5 222.845 834.844 236.5 817.999 236.5L696.001 236.5C679.156 236.5 665.5 222.845 665.5 206Z" stroke="#9B75D9" stroke-width="3" stroke-miterlimit="8" fill="none" fill-rule="evenodd"/><path d="M665.5 64.5001 848.462 64.5002" stroke="#9B75D9" stroke-width="3" stroke-miterlimit="8" fill="none" fill-rule="evenodd"/><text fill="#FFFFFF" font-family="Calibri,Calibri_MSFontService,sans-serif" font-weight="400" font-size="24" transform="translate(683.239 48)">c_address_di<tspan font-size="24" x="127.853" y="0">m</tspan><tspan font-size="16" x="-8.39014" y="472">purchase_month_id</tspan><tspan font-size="16" x="-8.39014" y="491">purchase_month_shor</tspan><tspan font-size="16" x="138.563" y="491">t</tspan></text><path d="M665.5 486.001C665.5 469.156 679.156 455.5 696.001 455.5L817.999 455.5C834.844 455.5 848.5 469.156 848.5 486.001L848.5 642.999C848.5 659.844 834.844 673.5 817.999 673.5L696.001 673.5C679.156 673.5 665.5 659.844 665.5 642.999Z" stroke="#9B75D9" stroke-width="3" stroke-miterlimit="8" fill="none" fill-rule="evenodd"/><path d="M665.5 500.5 848.462 500.5" stroke="#9B75D9" stroke-width="3" stroke-miterlimit="8" fill="none" fill-rule="evenodd"/><text fill="#FFFFFF" font-family="Calibri,Calibri_MSFontService,sans-serif" font-weight="400" font-size="24" transform="translate(699.609 485)">month_dim</text><path d="M659.297 275.856 624.5 128.5" stroke="#0FBAF1" stroke-width="3" stroke-miterlimit="8" stroke-dasharray="12 9" fill="none" fill-rule="evenodd"/></g></svg>