<svg width="595" height="658" xmlns="http://www.w3.org/2000/svg" xmlns:xlink="http://www.w3.org/1999/xlink" overflow="hidden"><defs><clipPath id="clip0"><rect x="32" y="17" width="595" height="658"/></clipPath></defs><g clip-path="url(#clip0)" transform="translate(-32 -17)"><path d="M238.515 346.703 126.5 237.5" stroke="#0FBAF1" stroke-width="3" stroke-miterlimit="8" fill="none" fill-rule="evenodd"/><path d="M0 0 112.033 108.712" stroke="#0FBAF1" stroke-width="3" stroke-miterlimit="8" fill="none" fill-rule="evenodd" transform="matrix(-1 0 0 1 238.533 346.5)"/><path d="M0 0 112.015 109.574" stroke="#0FBAF1" stroke-width="3" stroke-miterlimit="8" fill="none" fill-rule="evenodd" transform="matrix(-1 0 0 1 533.515 237.5)"/><path d="M533.496 455.703 421.5 346.5" stroke="#0FBAF1" stroke-width="3" stroke-miterlimit="8" fill="none" fill-rule="evenodd"/><text fill="#FFFFFF" font-family="Calibri,Calibri_MSFontService,sans-serif" font-weight="400" font-size="16" transform="translate(247.399 302)">order_id<tspan font-size="16" x="0" y="19">customer_id</tspan><tspan font-size="16" x="0" y="38">product_id</tspan><tspan font-size="16" x="0" y="58">store_id</tspan><tspan font-size="16" x="0" y="77">purchase_id</tspan><tspan font-size="16" x="0" y="96">purchase_dat</tspan>e</text><path d="M238.5 282.5 421.462 282.5" stroke="#F08F18" stroke-width="3" stroke-miterlimit="8" fill="none" fill-rule="evenodd"/><text fill="#FFFFFF" font-family="Calibri,Calibri_MSFontService,sans-serif" font-weight="400" font-size="24" transform="translate(281.2 267)">sales_fact</text><path d="M238.5 268.001C238.5 251.156 252.156 237.5 269.001 237.5L390.999 237.5C407.844 237.5 421.5 251.156 421.5 268.001L421.5 424.999C421.5 441.844 407.844 455.5 390.999 455.5L269.001 455.5C252.156 455.5 238.5 441.844 238.5 424.999Z" stroke="#F08F18" stroke-width="3" stroke-miterlimit="8" fill="none" fill-rule="evenodd"/><text fill="#FFFFFF" font-family="Calibri,Calibri_MSFontService,sans-serif" font-weight="400" font-size="16" transform="translate(43.9038 84)">product_id<tspan font-size="16" x="0" y="19">(various product related </tspan><tspan font-size="16" x="0" y="38">columns</tspan></text><path d="M34.5001 51.0006C34.5001 34.1556 48.1556 20.5001 65.0006 20.5001L186.999 20.5001C203.844 20.5001 217.5 34.1556 217.5 51.0006L217.5 207C217.5 223.845 203.844 237.5 186.999 237.5L65.0006 237.5C48.1556 237.5 34.5001 223.845 34.5001 207Z" stroke="#9B75D9" stroke-width="3" stroke-miterlimit="8" fill="none" fill-rule="evenodd"/><path d="M34.5001 65.5001 217.462 65.5002" stroke="#9B75D9" stroke-width="3" stroke-miterlimit="8" fill="none" fill-rule="evenodd"/><text fill="#FFFFFF" font-family="Calibri,Calibri_MSFontService,sans-serif" font-weight="400" font-size="24" transform="translate(62.7473 49)">product_dim<tspan font-size="16" x="388.148" y="35">customer_id</tspan><tspan font-size="16" x="388.148" y="54">(various customer </tspan><tspan font-size="16" x="388.148" y="73">related columns)</tspan></text><path d="M441.5 50.0007C441.5 33.1557 455.156 19.5001 472.001 19.5001L593.999 19.5001C610.844 19.5001 624.5 33.1557 624.5 50.0007L624.5 206.999C624.5 223.844 610.844 237.5 593.999 237.5L472.001 237.5C455.156 237.5 441.5 223.844 441.5 206.999Z" stroke="#9B75D9" stroke-width="3" stroke-miterlimit="8" fill="none" fill-rule="evenodd"/><path d="M441.5 64.5001 624.462 64.5002" stroke="#9B75D9" stroke-width="3" stroke-miterlimit="8" fill="none" fill-rule="evenodd"/><text fill="#FFFFFF" font-family="Calibri,Calibri_MSFontService,sans-serif" font-weight="400" font-size="24" transform="translate(462.212 49)">customer_dim<tspan font-size="16" x="-418.308" y="471">store_id</tspan><tspan font-size="16" x="-418.308" y="490">(various store related </tspan><tspan font-size="16" x="-418.308" y="509">columns)</tspan></text><path d="M34.5001 486.001C34.5001 469.156 48.1557 455.5 65.0008 455.5L186.999 455.5C203.844 455.5 217.5 469.156 217.5 486.001L217.5 642.999C217.5 659.844 203.844 673.5 186.999 673.5L65.0008 673.5C48.1557 673.5 34.5001 659.844 34.5001 642.999Z" stroke="#9B75D9" stroke-width="3" stroke-miterlimit="8" fill="none" fill-rule="evenodd"/><path d="M34.5001 500.5 217.462 500.5" stroke="#9B75D9" stroke-width="3" stroke-miterlimit="8" fill="none" fill-rule="evenodd"/><text fill="#FFFFFF" font-family="Calibri,Calibri_MSFontService,sans-serif" font-weight="400" font-size="24" transform="translate(76.3773 485)">store_dim<tspan font-size="16" x="374.499" y="35">purchase_date</tspan><tspan font-size="16" x="374.499" y="54">(various purchase </tspan><tspan font-size="16" x="374.499" y="73">related columns)</tspan></text><path d="M441.5 486.001C441.5 469.156 455.156 455.5 472.001 455.5L593.999 455.5C610.844 455.5 624.5 469.156 624.5 486.001L624.5 642.999C624.5 659.844 610.844 673.5 593.999 673.5L472.001 673.5C455.156 673.5 441.5 659.844 441.5 642.999Z" stroke="#9B75D9" stroke-width="3" stroke-miterlimit="8" fill="none" fill-rule="evenodd"/><path d="M441.5 500.5 624.462 500.5" stroke="#9B75D9" stroke-width="3" stroke-miterlimit="8" fill="none" fill-rule="evenodd"/><text fill="#FFFFFF" font-family="Calibri,Calibri_MSFontService,sans-serif" font-weight="400" font-size="24" transform="translate(486.266 485)">date_dim</text></g></svg>