<svg width="1127" height="642" xmlns="http://www.w3.org/2000/svg" xmlns:xlink="http://www.w3.org/1999/xlink" overflow="hidden"><defs><clipPath id="clip0"><rect x="14" y="14" width="1127" height="642"/></clipPath></defs><g clip-path="url(#clip0)" transform="translate(-14 -14)"><path d="M0-1.5 110.833-1.5 110.833 468.398 8.83326 468.398 8.83326 465.398 109.333 465.398 107.833 466.898 107.833 0 109.333 1.5 0 1.5ZM10.3333 471.398 1.33333 466.898 10.3333 462.398Z" fill="#0FBAF1" transform="matrix(1.83697e-16 1 1 -1.83697e-16 578.5 545.5)"/><rect x="249.5" y="281.5" width="189" height="264" stroke="#9B75D9" stroke-width="3" stroke-miterlimit="8" fill="none"/><text fill="#FFFFFF" font-family="Calibri,Calibri_MSFontService,sans-serif" font-weight="400" font-size="16" transform="translate(258.687 339)">member_key (PK)<tspan font-size="16" x="0" y="39">member_ID (NK)</tspan><tspan font-size="16" x="0" y="77">member__FName</tspan><tspan font-size="16" x="0" y="116">member _LName</tspan></text><rect x="249.5" y="281.5" width="189" height="38" stroke="#9B75D9" stroke-width="3" stroke-miterlimit="8" fill="none"/><text fill="#FFFFFF" font-family="Calibri,Calibri_MSFontService,sans-serif" font-weight="400" font-size="16" transform="translate(270.706 305)">Faculty_Member_DIM</text><rect x="483.5" y="281.5" width="189" height="264" stroke="#9B75D9" stroke-width="3" stroke-miterlimit="8" fill="none"/><text fill="#FFFFFF" font-family="Calibri,Calibri_MSFontService,sans-serif" font-weight="400" font-size="16" transform="translate(492.137 339)">month_key (PK)<tspan font-size="16" x="0" y="39">month_ID (NK)</tspan><tspan font-size="16" x="0" y="77">date_key (PK, FK)</tspan></text><rect x="483.5" y="281.5" width="189" height="38" stroke="#9B75D9" stroke-width="3" stroke-miterlimit="8" fill="none"/><text fill="#FFFFFF" font-family="Calibri,Calibri_MSFontService,sans-serif" font-weight="400" font-size="16" transform="translate(537.265 305)">Month_DIM</text><rect x="716.5" y="281.5" width="189" height="264" stroke="#9B75D9" stroke-width="3" stroke-miterlimit="8" fill="none"/><text fill="#FFFFFF" font-family="Calibri,Calibri_MSFontService,sans-serif" font-weight="400" font-size="16" transform="translate(725.586 339)">paper_key (PK)<tspan font-size="16" x="0" y="39">paper_final</tspan><tspan font-size="16" x="0" y="77">paper_approved</tspan><tspan font-size="16" x="0" y="116">paper_published</tspan></text><rect x="716.5" y="281.5" width="189" height="38" stroke="#9B75D9" stroke-width="3" stroke-miterlimit="8" fill="none"/><text fill="#FFFFFF" font-family="Calibri,Calibri_MSFontService,sans-serif" font-weight="400" font-size="16" transform="translate(749.984 305)">Paper_Status_DIM</text><path d="M205.5 147 345.961 147 345.961 273.284 342.961 273.284 342.961 148.5 344.461 150 205.5 150ZM348.961 271.784 344.461 280.784 339.961 271.784Z" fill="#0FBAF1"/><path d="M205.5 147 579.41 147 579.41 273.284 576.41 273.284 576.41 148.5 577.91 150 205.5 150ZM582.41 271.784 577.91 280.784 573.41 271.784Z" fill="#0FBAF1"/><path d="M205.5 147 812.86 147 812.86 273.284 809.86 273.284 809.86 148.5 811.36 150 205.5 150ZM815.86 271.784 811.36 280.784 806.86 271.784Z" fill="#0FBAF1"/><rect x="949.5" y="281.5" width="189" height="264" stroke="#9B75D9" stroke-width="3" stroke-miterlimit="8" fill="none"/><text fill="#FFFFFF" font-family="Calibri,Calibri_MSFontService,sans-serif" font-weight="400" font-size="16" transform="translate(959.035 339)">date_key (PK)<tspan font-size="16" x="0" y="39">date_day</tspan><tspan font-size="16" x="0" y="77">date_month</tspan><tspan font-size="16" x="0" y="116">date_year</tspan></text><rect x="949.5" y="281.5" width="189" height="38" stroke="#9B75D9" stroke-width="3" stroke-miterlimit="8" fill="none"/><text fill="#FFFFFF" font-family="Calibri,Calibri_MSFontService,sans-serif" font-weight="400" font-size="16" transform="translate(1010.92 305)">Date_DIM</text><rect x="16.5001" y="16.5001" width="189" height="265" stroke="#F08F18" stroke-width="3" stroke-miterlimit="8" fill="none"/><text fill="#FFFFFF" font-family="Calibri,Calibri_MSFontService,sans-serif" font-weight="400" font-size="16" transform="translate(25.2382 74)">faculty_key (PK, FK)<tspan font-size="16" x="0" y="39">month_key(PK, FK)</tspan><tspan font-size="16" x="0" y="77">paper_status_key(PK, FK)</tspan><tspan font-size="16" x="0" y="116">num_of_papers</tspan></text><rect x="16.5001" y="16.5001" width="189" height="38" stroke="#F08F18" stroke-width="3" stroke-miterlimit="8" fill="none"/><text fill="#FFFFFF" font-family="Calibri,Calibri_MSFontService,sans-serif" font-weight="400" font-size="16" transform="translate(49.5864 40)">paper_EOM_SNAP</text></g></svg>