<svg width="894" height="534" xmlns="http://www.w3.org/2000/svg" xmlns:xlink="http://www.w3.org/1999/xlink" overflow="hidden"><defs><clipPath id="clip0"><rect x="140" y="113" width="894" height="534"/></clipPath></defs><g clip-path="url(#clip0)" transform="translate(-140 -113)"><rect x="376.5" y="380.5" width="189" height="264" stroke="#9B75D9" stroke-width="3" stroke-miterlimit="8" fill="none"/><text fill="#FFFFFF" font-family="Calibri,Calibri_MSFontService,sans-serif" font-weight="400" font-size="16" transform="translate(385.164 438)">student_key (PK)<tspan font-size="16" x="0" y="39">student_ID (NK)</tspan><tspan font-size="16" x="0" y="77">student__FName</tspan><tspan font-size="16" x="0" y="116">student _LName</tspan></text><rect x="376.5" y="380.5" width="189" height="38" stroke="#9B75D9" stroke-width="3" stroke-miterlimit="8" fill="none"/><text fill="#FFFFFF" font-family="Calibri,Calibri_MSFontService,sans-serif" font-weight="400" font-size="16" transform="translate(426.875 404)">Student_DIM</text><rect x="609.5" y="380.5" width="189" height="264" stroke="#9B75D9" stroke-width="3" stroke-miterlimit="8" fill="none"/><text fill="#FFFFFF" font-family="Calibri,Calibri_MSFontService,sans-serif" font-weight="400" font-size="16" transform="translate(618.613 438)">date_key (PK)<tspan font-size="16" x="0" y="39">date_time</tspan><tspan font-size="16" x="0" y="77">date_day</tspan><tspan font-size="16" x="0" y="116">date_month</tspan><tspan font-size="16" x="0" y="154">date_year</tspan></text><rect x="609.5" y="380.5" width="189" height="38" stroke="#9B75D9" stroke-width="3" stroke-miterlimit="8" fill="none"/><text fill="#FFFFFF" font-family="Calibri,Calibri_MSFontService,sans-serif" font-weight="400" font-size="16" transform="translate(670.494 404)">Date_DIM</text><rect x="842.5" y="380.5" width="189" height="264" stroke="#9B75D9" stroke-width="3" stroke-miterlimit="8" fill="none"/><text fill="#FFFFFF" font-family="Calibri,Calibri_MSFontService,sans-serif" font-weight="400" font-size="16" transform="translate(852.062 438)">location_key (PK)<tspan font-size="16" x="0" y="39">location_name</tspan></text><rect x="842.5" y="380.5" width="189" height="38" stroke="#9B75D9" stroke-width="3" stroke-miterlimit="8" fill="none"/><text fill="#FFFFFF" font-family="Calibri,Calibri_MSFontService,sans-serif" font-weight="400" font-size="16" transform="translate(891.59 404)">Location_DIM</text><path d="M331.5 247 471.961 247 471.961 373.284 468.961 373.284 468.961 248.5 470.461 250 331.5 250ZM474.961 371.784 470.461 380.784 465.961 371.784Z" fill="#0FBAF1"/><path d="M331.5 247 705.41 247 705.41 373.284 702.41 373.284 702.41 248.5 703.91 250 331.5 250ZM708.41 371.784 703.91 380.784 699.41 371.784Z" fill="#0FBAF1"/><path d="M331.5 247 938.86 247 938.86 373.284 935.86 373.284 935.86 248.5 937.36 250 331.5 250ZM941.86 371.784 937.36 380.784 932.86 371.784Z" fill="#0FBAF1"/><rect x="142.5" y="115.5" width="189" height="265" stroke="#F08F18" stroke-width="3" stroke-miterlimit="8" fill="none"/><text fill="#FFFFFF" font-family="Calibri,Calibri_MSFontService,sans-serif" font-weight="400" font-size="16" transform="translate(151.714 173)">student_key (PK, FK)<tspan font-size="16" x="0" y="39">date_key(PK, FK)</tspan><tspan font-size="16" x="0" y="77">location_key(PK, FK)</tspan><tspan font-size="16" x="0" y="116">meal_payment_amt (£)</tspan></text><rect x="142.5" y="115.5" width="189" height="38" stroke="#F08F18" stroke-width="3" stroke-miterlimit="8" fill="none"/><text fill="#FFFFFF" font-family="Calibri,Calibri_MSFontService,sans-serif" font-weight="400" font-size="16" transform="translate(170.749 140)">Meal_Purchase_FCT</text></g></svg>